HIERARCHY
ROOT Hips
{
 OFFSET 0.000000 0.000000 0.000000
 CHANNELS 6 Xposition Yposition Zposition Yrotation Xrotation Zrotation
 JOINT Chest
 {
  OFFSET 0.000000 9.303000 0.001900
  CHANNELS 3 Yrotation Xrotation Zrotation
  JOINT Chest2
  {
   OFFSET 0.000000 9.301100 -0.003900
   CHANNELS 3 Yrotation Xrotation Zrotation
   JOINT Chest3
   {
    OFFSET 0.000000 9.262800 0.000000
    CHANNELS 3 Yrotation Xrotation Zrotation
    JOINT Chest4
    {
     OFFSET 0.000000 9.253300 0.000000
     CHANNELS 3 Yrotation Xrotation Zrotation
     JOINT Neck
     {
      OFFSET 0.000000 14.010300 0.000000
      CHANNELS 3 Yrotation Xrotation Zrotation
      JOINT Head
      {
       OFFSET 0.000000 8.657600 -0.008300
       CHANNELS 3 Yrotation Xrotation Zrotation
       End Site
       {
        OFFSET 0.000000 16.540200 -0.004400
       }
      }
     }
     JOINT RightCollar
     {
      OFFSET -2.834100 9.267700 0.000000
      CHANNELS 3 Yrotation Xrotation Zrotation
      JOINT RightShoulder
      {
       OFFSET -13.135200 0.000000 0.000000
       CHANNELS 3 Yrotation Xrotation Zrotation
       JOINT RightElbow
       {
        OFFSET 0.000000 -28.893500 0.000000
        CHANNELS 3 Yrotation Xrotation Zrotation
        JOINT RightWrist
        {
         OFFSET 0.000000 -23.344000 0.000000
         CHANNELS 3 Yrotation Xrotation Zrotation
         End Site
         {
          OFFSET 0.000000 -17.223000 0.000000
         }
        }
       }
      }
     }
     JOINT LeftCollar
     {
      OFFSET 2.834100 9.267700 0.000000
      CHANNELS 3 Yrotation Xrotation Zrotation
      JOINT LeftShoulder
      {
       OFFSET 13.135200 0.000000 0.000000
       CHANNELS 3 Yrotation Xrotation Zrotation
       JOINT LeftElbow
       {
        OFFSET 0.000000 -28.893500 0.000000
        CHANNELS 3 Yrotation Xrotation Zrotation
        JOINT LeftWrist
        {
         OFFSET 0.000000 -23.344000 0.000000
         CHANNELS 3 Yrotation Xrotation Zrotation
         End Site
         {
          OFFSET 0.000000 -17.223000 0.000000
         }
        }
       }
      }
     }
    }
   }
  }
 }
 JOINT RightHip
 {
  OFFSET -7.547200 -0.009500 -0.001000
  CHANNELS 3 Yrotation Xrotation Zrotation
  JOINT RightKnee
  {
   OFFSET 0.000000 -39.762800 0.000900
   CHANNELS 3 Yrotation Xrotation Zrotation
   JOINT RightAnkle
   {
    OFFSET 0.000000 -38.588200 0.001600
    CHANNELS 3 Yrotation Xrotation Zrotation
    JOINT RightToe
    {
     OFFSET 0.000000 -4.693300 10.419700
     CHANNELS 3 Yrotation Xrotation Zrotation
     End Site
     {
      OFFSET 0.000000 -1.379900 5.669300
     }
    }
   }
  }
 }
 JOINT LeftHip
 {
  OFFSET 7.547200 -0.009500 -0.001000
  CHANNELS 3 Yrotation Xrotation Zrotation
  JOINT LeftKnee
  {
   OFFSET 0.000000 -39.762800 0.000900
   CHANNELS 3 Yrotation Xrotation Zrotation
   JOINT LeftAnkle
   {
    OFFSET 0.000000 -38.588200 0.001600
    CHANNELS 3 Yrotation Xrotation Zrotation
    JOINT LeftToe
    {
     OFFSET 0.000000 -4.693300 10.419700
     CHANNELS 3 Yrotation Xrotation Zrotation
     End Site
     {
      OFFSET 0.000000 -1.379900 5.669300
     }
    }
   }
  }
 }
}
MOTION
Frames: 15
Frame Time: 0.008333
2.726825 45.875549 9.934727 160.666069 -16.536636 0.437564 2.224759 9.277568 2.127438 0.076584 0.539832 0.113741 0.133281 0.934987 0.197369 1.374456 8.676371 1.933273 -1.434761 18.049934 0.573436 -1.642735 -6.713944 0.930376 17.081803 -6.026404 -12.717259 14.041546 -29.188956 -32.380032 -24.455019 -16.958625 38.446549 -17.623984 -3.875044 -24.242839 -19.735349 -11.811300 -2.715418 -4.808673 -28.264307 30.234846 24.598280 1.087325 -55.004523 18.083804 -6.629415 14.655119 -16.493236 -71.230389 13.610888 -132.086670 84.692452 -132.479003 -8.094212 -9.112558 -2.550600 -0.157851 -0.497650 -0.253107 -4.175617 -69.654817 28.434813 88.237951 78.784371 87.740093 -11.983271 -7.455479 -1.508816 0.634563 0.302946 0.092320
2.760530 45.886391 9.980439 160.585677 -16.729203 0.431611 2.162183 9.320029 2.175975 0.073978 0.545695 0.116559 0.128804 0.944857 0.202242 1.328687 8.720704 1.965742 -1.553952 18.226575 0.597039 -1.775649 -6.516426 0.983169 17.711237 -6.293236 -13.475719 15.273932 -29.871169 -34.074048 -24.839172 -16.317417 37.788172 -17.818668 -4.254501 -24.375234 -20.071904 -12.386394 -2.125003 -5.542217 -29.250640 31.232045 24.743917 1.205616 -54.528070 18.336072 -7.298700 14.862433 -16.638668 -71.004045 13.769763 -131.431222 84.747705 -131.835995 -8.064782 -9.045949 -2.594502 -0.206369 -0.515519 -0.267643 -4.459780 -69.401170 28.656670 87.865499 78.695303 87.441406 -11.997150 -7.361301 -1.681905 0.689326 0.264332 0.116762
2.797698 45.897582 10.024580 160.500500 -16.913322 0.409919 2.111361 9.356879 2.243146 0.071798 0.551082 0.119450 0.124998 0.953943 0.207253 1.290156 8.760421 2.000316 -1.685085 18.402669 0.604458 -1.917778 -6.318582 1.021702 18.307500 -6.548528 -14.262496 16.626307 -30.402385 -35.769838 -25.246884 -15.972834 36.971995 -17.951997 -4.636438 -24.440510 -20.389428 -12.929142 -1.453651 -6.436768 -30.132209 32.268415 24.997800 1.169222 -54.091829 18.609450 -7.922909 14.948315 -16.713321 -70.791826 13.877816 -130.856019 84.794133 -131.254221 -7.937695 -8.970125 -2.647398 -0.212604 -0.539412 -0.265185 -4.817866 -69.142445 28.962319 87.517411 78.611068 87.147861 -12.009837 -7.277651 -1.838020 0.738904 0.235346 0.125450
2.835645 45.909620 10.064483 160.419467 -17.098799 0.393118 2.060498 9.400558 2.308097 0.069954 0.556625 0.122580 0.121768 0.963341 0.212561 1.257574 8.800505 2.037489 -1.824336 18.573092 0.593573 -2.064449 -6.126188 1.042765 18.874750 -6.797359 -15.079991 18.017422 -30.811536 -37.431570 -25.640596 -15.910984 36.033469 -18.035419 -5.035786 -24.452120 -20.688542 -13.447559 -0.708786 -7.440402 -30.928469 33.354899 25.298500 1.016386 -53.714176 18.903761 -8.535987 14.924510 -16.650478 -70.589351 13.870607 -130.231557 84.824393 -130.584982 -7.871099 -8.901252 -2.694902 -0.214881 -0.564080 -0.257306 -5.187068 -68.868595 29.275250 87.181052 78.530177 86.848128 -12.018904 -7.203081 -2.006239 0.795420 0.212257 0.121759
2.870044 45.922511 10.098380 160.315496 -17.287536 0.419677 2.033847 9.454665 2.340705 0.068755 0.562944 0.126039 0.119729 0.974018 0.218474 1.235760 8.844458 2.078571 -1.970690 18.731710 0.566510 -2.215166 -5.946297 1.048283 19.401691 -7.043411 -15.925954 19.367825 -31.132501 -39.030413 -25.991705 -16.112274 35.030799 -18.091004 -5.468893 -24.458030 -20.975531 -13.944636 0.109082 -8.498039 -31.663795 34.499170 25.589895 0.781491 -53.408886 19.207258 -9.161652 14.821497 -16.820137 -70.364148 14.069315 -129.813628 84.869538 -130.234841 -7.809797 -8.824184 -2.715567 -0.311341 -0.613107 -0.289049 -5.455057 -68.581130 29.500987 86.858851 78.449762 86.546986 -12.094765 -7.141213 -2.195775 0.918953 0.193794 0.149456
2.909442 45.935861 10.129682 160.236274 -17.479652 0.420000 1.997720 9.516603 2.395500 0.068380 0.570698 0.129812 0.119062 0.987014 0.225018 1.225645 8.897088 2.122471 -2.119666 18.868627 0.529755 -2.366615 -5.790066 1.044026 19.889546 -7.284653 -16.788121 20.616311 -31.388702 -40.558263 -26.282353 -16.563395 34.022927 -18.146496 -5.946030 -24.483564 -21.264192 -14.418198 0.999146 -9.574281 -32.361401 35.714184 25.828092 0.474704 -53.183089 19.497629 -9.797009 14.697720 -16.920774 -70.144300 14.181420 -129.546954 84.914226 -129.995224 -7.666921 -8.764764 -2.773717 -0.330050 -0.640782 -0.294890 -5.800309 -68.279065 29.781869 86.550173 78.369948 86.250662 -12.092588 -7.087831 -2.362718 0.955987 0.184988 0.169468
2.951169 45.948945 10.158696 160.155736 -17.670838 0.417119 1.974912 9.583866 2.455305 0.068483 0.580272 0.133959 0.119164 1.003033 0.232095 1.221453 8.961846 2.168198 -2.261472 18.972834 0.488806 -2.509380 -5.670003 1.033495 20.346653 -7.502969 -17.657029 21.724219 -31.610663 -42.017908 -26.487721 -17.266666 33.052671 -18.226804 -6.467933 -24.523496 -21.559833 -14.864996 1.959262 -10.660116 -33.033922 37.007354 25.995126 0.076747 -53.029132 19.745079 -10.403954 14.595403 -16.950621 -69.931432 14.229288 -129.315400 84.954319 -129.754501 -7.539097 -8.706320 -2.846696 -0.320212 -0.671933 -0.308824 -6.152371 -67.969929 30.068632 86.248830 78.290660 85.956596 -12.074387 -7.048635 -2.527559 0.978807 0.188463 0.184241
2.991946 45.962109 10.181499 160.098396 -17.882507 0.430726 1.936074 9.678094 2.493705 0.068538 0.591710 0.138542 0.119320 1.022290 0.239776 1.216116 9.039417 2.215797 -2.384693 19.034040 0.450577 -2.632681 -5.598184 1.021423 20.771222 -7.682127 -18.521731 22.686728 -31.825714 -43.420905 -26.592294 -18.218167 32.127956 -18.340245 -7.017421 -24.551683 -21.850701 -15.277461 2.989635 -11.761433 -33.681575 38.378870 26.104254 -0.439794 -52.934653 19.937746 -10.940802 14.527678 -16.900166 -69.706690 14.186860 -129.082722 84.979770 -129.504684 -7.524723 -8.670579 -2.887501 -0.251742 -0.695611 -0.310471 -6.441911 -67.643872 30.269001 85.955440 78.217697 85.674029 -12.050806 -7.007594 -2.717720 1.006428 0.187979 0.225589
3.035612 45.974249 10.201035 160.057231 -18.110278 0.433761 1.893371 9.793093 2.541452 0.068411 0.605451 0.143454 0.119224 1.045487 0.248076 1.206855 9.132962 2.263402 -2.485835 19.033653 0.429038 -2.735794 -5.595586 1.021861 21.153728 -7.825679 -19.367301 23.518245 -32.043744 -44.787074 -26.599278 -19.396178 31.228316 -18.478949 -7.567613 -24.534936 -22.126785 -15.653332 4.094338 -12.900437 -34.271416 39.852608 26.206999 -1.093069 -52.911135 20.083521 -11.385988 14.492831 -16.780357 -69.471777 14.071707 -128.942932 84.997154 -129.322828 -7.509652 -8.643672 -2.929781 -0.317100 -0.721825 -0.306358 -6.728553 -67.305241 30.455088 85.668921 78.151137 85.405600 -12.017180 -6.975139 -2.903745 1.020441 0.194457 0.262872
3.076676 45.984281 10.216810 160.027959 -18.350315 0.458874 1.848698 9.930267 2.565590 0.068338 0.622469 0.148632 0.119085 1.074152 0.256853 1.195735 9.248705 2.308380 -2.578981 18.940887 0.437713 -2.836491 -5.695942 1.052335 21.472295 -7.945040 -20.187192 24.251227 -32.269759 -46.136206 -26.531497 -20.781106 30.343645 -18.623158 -8.096681 -24.446869 -22.380012 -15.998983 5.286737 -14.143327 -34.735532 41.482455 26.419911 -1.894183 -52.975449 20.181709 -11.708436 14.458630 -16.594345 -69.234762 13.883135 -128.859771 85.007927 -129.220006 -7.490263 -8.627905 -2.941009 -0.336550 -0.733987 -0.277787 -6.953539 -66.955114 30.555040 85.388178 78.081006 85.140513 -11.992026 -6.945927 -3.029136 1.052329 0.202931 0.242677
3.115660 45.991364 10.229511 160.018724 -18.604199 0.496669 1.795011 10.094981 2.570802 0.068294 0.643708 0.154181 0.140892 1.121068 0.237897 1.164739 9.379783 2.379176 -2.692864 18.732843 0.472412 -2.964222 -5.923327 1.114975 21.705268 -8.050250 -20.982392 24.945555 -32.494216 -47.496140 -26.446723 -22.354647 29.480125 -18.744890 -8.593536 -24.277736 -22.588348 -16.315680 6.578690 -15.560552 -35.010249 43.301145 26.883560 -2.868770 -53.117436 20.216339 -11.883952 14.376043 -16.406117 -68.986107 13.663510 -128.838905 85.021572 -129.176362 -7.557939 -8.635320 -2.945899 -0.385787 -0.736257 -0.293039 -7.128423 -66.598348 30.578928 85.114253 78.008129 84.887360 -11.932607 -6.922010 -3.218040 1.047679 0.217080 0.283514
3.160616 45.995253 10.240634 160.040231 -18.883765 0.490608 1.727927 10.292944 2.616041 0.067855 0.669065 0.160505 0.129006 1.154761 0.262890 1.152862 9.556294 2.409171 -2.858671 18.423786 0.504443 -3.145946 -6.259984 1.186560 21.848215 -8.134118 -21.759490 25.663201 -32.683132 -48.901346 -26.434412 -24.091653 28.639854 -18.827439 -9.060983 -24.034196 -22.730019 -16.590622 7.954227 -17.127937 -35.089780 45.243263 27.654965 -4.059974 -53.280366 20.185093 -11.942477 14.218757 -16.279414 -68.706773 13.442978 -129.287025 85.057946 -129.519319 -7.646897 -8.661126 -3.048216 -0.347835 -0.743712 -0.272984 -7.376239 -66.225310 30.656200 84.858029 77.934937 84.665626 -11.877543 -6.906648 -3.369830 1.008815 0.248883 0.328083
3.204341 45.994289 10.251338 160.070829 -19.166925 0.482852 1.659790 10.492640 2.675702 0.066799 0.696853 0.168264 0.116293 1.198550 0.290066 1.133557 9.737637 2.453117 -3.086012 18.057921 0.504007 -3.385809 -6.655537 1.237889 21.912494 -8.164497 -22.524406 26.424204 -32.799107 -50.371239 -26.578308 -25.974888 27.827264 -18.872806 -9.513565 -23.732498 -22.795505 -16.793696 9.363024 -18.752963 -35.042364 47.165988 28.690657 -5.493849 -53.361450 20.106717 -11.950102 13.964871 -16.116931 -68.432035 13.181060 -129.826234 85.088691 -129.970472 -7.627152 -8.684772 -3.123316 -0.320301 -0.742658 -0.261021 -7.613120 -65.861025 30.713880 84.636213 77.858974 84.485405 -11.823816 -6.886808 -3.517565 1.000686 0.269957 0.326948
3.244028 45.988237 10.260434 160.110939 -19.453399 0.487686 1.583729 10.690358 2.743125 0.065137 0.725398 0.178004 0.113438 1.246290 0.306504 1.099974 9.914296 2.534159 -3.348759 17.666709 0.467764 -3.655556 -7.075349 1.259571 21.931072 -8.127865 -23.280720 27.204157 -32.818549 -51.891737 -26.923920 -27.978619 27.051713 -18.882967 -9.985405 -23.408399 -22.779695 -16.911007 10.743891 -20.346698 -34.935247 48.965758 29.919976 -7.175745 -53.293378 20.004539 -11.981200 13.607817 -15.825107 -68.164695 12.766591 -130.562588 85.134627 -130.570031 -7.622204 -8.736923 -3.184125 -0.350537 -0.717099 -0.273176 -7.811983 -65.508596 30.722872 84.460248 77.782156 84.354820 -11.775911 -6.856401 -3.663652 0.995206 0.279968 0.328478
3.282787 45.976856 10.269729 160.161980 -19.735269 0.478345 1.491504 10.887009 2.849429 0.062258 0.754460 0.190275 0.108399 1.294833 0.327168 1.053402 10.086571 2.642815 -3.602435 17.250891 0.408066 -3.910533 -7.519804 1.254515 21.962342 -8.048464 -24.037460 27.971916 -32.729674 -53.433548 -27.465913 -30.071223 26.308962 -18.865411 -10.510883 -23.111147 -22.659587 -16.971680 12.045162 -21.840077 -34.793086 50.613675 31.277681 -9.114215 -53.073093 19.906676 -12.102488 13.179893 -15.567930 -67.901489 12.394026 -131.276845 85.175365 -131.140914 -7.669930 -8.797049 -3.245107 -0.362449 -0.687996 -0.288051 -8.043357 -65.171256 30.759792 84.332787 77.705153 84.272690 -11.729435 -6.825354 -3.806598 0.982116 0.289221 0.330159
